<svg width="178" height="98" viewBox="0 0 178 98" fill="none" xmlns="http://www.w3.org/2000/svg">
<path d="M18.7175 79.144V79.326C20.6775 79.326 19.9075 81.286 19.5015 82.63L17.9195 87.124L15.6235 80.53C15.5955 80.432 15.2175 79.326 16.4635 79.326V79.144H12.6975V79.326C13.1735 79.326 13.6495 79.41 14.0415 80.418L14.7695 82.504L13.2295 87.082L10.8215 80.53C10.7935 80.432 10.4435 79.326 11.6755 79.326V79.144H7.89554V79.326C8.37154 79.326 8.84754 79.41 9.23954 80.418L12.5435 89H12.7535L14.8675 82.77L17.1915 89H17.3875L19.6835 82.672C20.8315 79.662 21.2515 79.326 22.2735 79.326V79.144H18.7175ZM29.0927 88.832C28.6027 88.706 28.5187 88.468 28.5187 87.698V84.66C28.5187 82.98 27.7347 82.406 26.5867 82.406C25.6767 82.406 24.6267 83.19 24.4167 83.988V78.668L22.4847 79.088V79.27C23.0587 79.368 23.1847 79.536 23.1847 80.026V87.698C23.1847 88.412 23.1567 88.664 22.6247 88.818V89H24.9907V88.818C24.4867 88.692 24.4167 88.468 24.4167 87.698V84.24C24.6407 83.764 25.1587 83.12 25.8587 83.12C26.8387 83.12 27.3147 83.708 27.3147 84.716V87.698C27.3147 88.412 27.2867 88.678 26.7547 88.832V89H29.0927V88.832ZM31.1764 85.458C31.1764 83.694 32.0724 82.588 32.8704 82.588C33.5424 82.588 34.4524 83.414 34.4524 85.458H31.1764ZM35.2644 87.278C35.0124 87.964 34.0184 88.482 33.1784 88.398C32.0724 88.286 31.2324 87.53 31.1764 85.64H35.6564C35.6564 83.442 34.5364 82.406 32.9124 82.406C31.1764 82.406 29.8604 83.75 29.8604 85.822C29.8604 87.67 31.1064 89.126 32.8564 89.126C34.5084 89.126 35.2784 88.006 35.4324 87.348L35.2644 87.278ZM42.9534 88.832C42.4634 88.706 42.3794 88.468 42.3794 87.698V84.646C42.3794 82.952 41.5814 82.406 40.4474 82.406C39.5654 82.406 38.5994 83.064 38.3054 83.876V82.406L36.3734 82.812V82.98C36.9614 83.134 37.0734 83.316 37.0734 83.806V87.712C37.0734 88.426 37.0594 88.664 36.5274 88.818V89H38.8794V88.818C38.3754 88.692 38.3054 88.482 38.3054 87.712V84.31C38.4174 83.806 39.0054 83.106 39.7334 83.106C40.6574 83.106 41.1614 83.736 41.1614 84.688V87.698C41.1614 88.412 41.1334 88.678 40.6014 88.832V89H42.9534V88.832ZM51.5334 79.886C51.6314 79.648 51.5754 79.312 51.4354 79.116C51.2954 78.934 50.7914 78.584 50.1474 78.584C48.5514 78.584 47.8934 79.48 47.8934 82.532H46.9834L46.9974 82.714H47.8934V87.81C47.8934 88.482 47.8794 88.72 47.3474 88.832V89H49.7974V88.832C49.2934 88.734 49.1254 88.538 49.1254 87.81V82.714H50.6514L50.6934 82.532H49.1254C49.1254 79.452 49.4894 78.766 50.1614 78.766C50.5674 78.766 50.7914 78.99 50.6514 79.032C50.4974 79.06 50.3574 79.186 50.2874 79.368C50.1334 79.718 50.3014 80.11 50.6514 80.25C50.9874 80.39 51.3934 80.236 51.5334 79.886ZM52.8464 85.458C52.8464 83.694 53.7424 82.588 54.5404 82.588C55.2124 82.588 56.1224 83.414 56.1224 85.458H52.8464ZM56.9344 87.278C56.6824 87.964 55.6884 88.482 54.8484 88.398C53.7424 88.286 52.9024 87.53 52.8464 85.64H57.3264C57.3264 83.442 56.2064 82.406 54.5824 82.406C52.8464 82.406 51.5304 83.75 51.5304 85.822C51.5304 87.67 52.7764 89.126 54.5264 89.126C56.1784 89.126 56.9484 88.006 57.1024 87.348L56.9344 87.278ZM59.7233 85.458C59.7233 83.694 60.6193 82.588 61.4173 82.588C62.0893 82.588 62.9993 83.414 62.9993 85.458H59.7233ZM63.8113 87.278C63.5593 87.964 62.5653 88.482 61.7253 88.398C60.6193 88.286 59.7793 87.53 59.7233 85.64H64.2033C64.2033 83.442 63.0833 82.406 61.4593 82.406C59.7233 82.406 58.4073 83.75 58.4073 85.822C58.4073 87.67 59.6533 89.126 61.4033 89.126C63.0553 89.126 63.8253 88.006 63.9793 87.348L63.8113 87.278ZM67.5943 88.818C67.1043 88.692 67.0343 88.482 67.0343 87.712V78.668L65.1023 79.046V79.228C65.6763 79.34 65.8023 79.536 65.8023 80.026V87.712C65.8023 88.426 65.7743 88.664 65.2423 88.818V89H67.5943V88.818ZM69.5888 81.244C69.9808 81.244 70.3028 80.922 70.3028 80.53C70.3028 80.124 69.9808 79.816 69.5888 79.816C69.1828 79.816 68.8748 80.124 68.8748 80.53C68.8748 80.922 69.1828 81.244 69.5888 81.244ZM70.9048 88.818C70.4008 88.692 70.3308 88.482 70.3308 87.698V82.406L68.4128 82.812V82.98C69.0008 83.134 69.1128 83.33 69.1128 83.82V87.698C69.1128 88.412 69.0848 88.664 68.5528 88.818V89H70.9048V88.818ZM78.1585 88.832C77.6685 88.706 77.5845 88.468 77.5845 87.698V84.646C77.5845 82.952 76.7865 82.406 75.6525 82.406C74.7705 82.406 73.8045 83.064 73.5105 83.876V82.406L71.5785 82.812V82.98C72.1665 83.134 72.2785 83.316 72.2785 83.806V87.712C72.2785 88.426 72.2645 88.664 71.7325 88.818V89H74.0845V88.818C73.5805 88.692 73.5105 88.482 73.5105 87.712V84.31C73.6225 83.806 74.2105 83.106 74.9385 83.106C75.8625 83.106 76.3665 83.736 76.3665 84.688V87.698C76.3665 88.412 76.3385 88.678 75.8065 88.832V89H78.1585V88.832ZM83.4625 84.548C83.4625 86.116 82.6925 86.522 82.0485 86.522C81.4325 86.522 80.6485 86.116 80.6485 84.548C80.6485 82.98 81.3485 82.588 82.0485 82.588C82.6505 82.588 83.4625 82.98 83.4625 84.548ZM85.8425 83.414C86.1085 83.19 86.1505 82.798 85.9405 82.518C85.7865 82.336 85.5205 82.266 85.2965 82.28C84.9605 82.322 84.4005 82.518 84.0365 83.064C83.5745 82.658 82.8885 82.406 82.0485 82.406C80.4385 82.406 79.4305 83.414 79.4305 84.548C79.4305 85.29 79.7945 86.06 80.5365 86.382C79.2345 86.76 79.2905 87.936 79.2905 87.936C79.2905 88.44 79.5145 88.818 79.9205 89.014C78.9965 89.532 78.3805 90.568 78.8985 91.52C79.4725 92.584 81.6705 92.794 83.5885 91.716C85.0585 90.89 85.1005 89.798 85.1005 89.798C85.3525 87.964 83.6585 88.02 82.6925 88.02H81.0125C79.3605 88.02 80.0605 86.578 80.7185 86.466C81.0825 86.62 81.5025 86.704 82.0485 86.704C83.6865 86.704 84.6805 85.682 84.6805 84.548C84.6805 84.044 84.5125 83.526 84.1625 83.176C84.4145 82.812 84.8485 82.756 84.8205 82.868C84.7785 83.022 84.8345 83.19 84.9465 83.33C85.1565 83.61 85.5625 83.638 85.8425 83.414ZM79.8365 91.184C79.8645 91.212 78.7725 89.994 80.1025 89.112C80.5925 89.308 81.1385 89.294 81.2925 89.294H83.2245C84.4285 89.294 84.4845 90.008 84.4845 90.008C84.4845 90.008 84.5825 90.89 83.4905 91.562C82.2445 92.332 80.4945 91.968 79.8365 91.184ZM93.7244 87.852C93.6124 88.146 93.2764 88.44 92.8704 88.44C92.2124 88.44 91.8064 88.062 91.8064 86.942V82.714H93.4304L93.4724 82.532H91.8064V80.348L90.5884 80.544V82.532H89.8464L89.8744 82.714H90.5884V86.984C90.5884 88.678 91.2044 89.126 92.2264 89.126C93.0384 89.126 93.6684 88.538 93.8644 87.922L93.7244 87.852ZM100.87 88.832C100.38 88.706 100.296 88.468 100.296 87.698V84.66C100.296 82.98 99.5121 82.406 98.3641 82.406C97.4541 82.406 96.4041 83.19 96.1941 83.988V78.668L94.2621 79.088V79.27C94.8361 79.368 94.9621 79.536 94.9621 80.026V87.698C94.9621 88.412 94.9341 88.664 94.4021 88.818V89H96.7681V88.818C96.2641 88.692 96.1941 88.468 96.1941 87.698V84.24C96.4181 83.764 96.9361 83.12 97.6361 83.12C98.6161 83.12 99.0921 83.708 99.0921 84.716V87.698C99.0921 88.412 99.0641 88.678 98.5321 88.832V89H100.87V88.832ZM102.954 85.458C102.954 83.694 103.85 82.588 104.648 82.588C105.32 82.588 106.23 83.414 106.23 85.458H102.954ZM107.042 87.278C106.79 87.964 105.796 88.482 104.956 88.398C103.85 88.286 103.01 87.53 102.954 85.64H107.434C107.434 83.442 106.314 82.406 104.69 82.406C102.954 82.406 101.638 83.75 101.638 85.822C101.638 87.67 102.884 89.126 104.634 89.126C106.286 89.126 107.056 88.006 107.21 87.348L107.042 87.278ZM117.629 87.208C117.377 87.782 116.509 88.44 115.487 88.356C114.493 88.258 113.443 87.488 113.443 85.626C113.443 83.008 114.983 82.588 115.543 82.588C116.481 82.588 116.859 82.98 116.733 83.008C116.593 83.022 116.439 83.134 116.341 83.302C116.159 83.596 116.257 84.002 116.579 84.184C116.873 84.366 117.293 84.24 117.475 83.946C117.601 83.722 117.573 83.456 117.461 83.26C117.335 83.036 116.915 82.406 115.543 82.406C113.401 82.406 112.141 84.058 112.141 85.78C112.141 87.838 113.625 89.126 115.193 89.126C116.915 89.126 117.629 87.978 117.783 87.278L117.629 87.208ZM122.409 85.542C122.409 85.542 122.409 87.614 122.409 87.628C122.269 87.964 121.919 88.496 121.177 88.496C120.323 88.496 120.071 87.796 120.071 87.39C120.071 86.55 120.785 85.934 122.409 85.542ZM124.299 88.468C123.655 88.468 123.669 87.586 123.669 87.586V85.206C123.669 83.54 123.249 82.406 121.723 82.406C121.723 82.406 121.037 82.364 120.435 82.672C119.679 83.078 119.441 83.498 119.343 83.708C119.231 83.904 119.259 84.184 119.413 84.394C119.623 84.688 120.029 84.744 120.309 84.52C120.603 84.31 120.659 83.89 120.449 83.61C120.337 83.456 120.183 83.386 120.015 83.358C119.931 83.344 120.015 83.078 120.561 82.812C121.681 82.294 122.409 83.106 122.409 84.548V85.36C120.015 85.976 118.825 86.284 118.825 87.684C118.825 89.126 120.421 89.126 120.421 89.126C121.401 89.126 122.213 88.622 122.409 87.95C122.493 89.154 123.599 89.126 123.599 89.126C124.327 89.126 124.803 88.594 124.887 88.174L124.719 88.104C124.621 88.468 124.299 88.468 124.299 88.468ZM129.05 82.448C128.49 82.518 127.692 82.924 127.174 83.876V82.406L125.242 82.812V82.98C125.816 83.134 125.942 83.33 125.942 83.82V87.698C125.942 88.426 125.914 88.664 125.382 88.818V89H127.748V88.818C127.244 88.692 127.174 88.482 127.174 87.698V84.212C127.608 83.274 128.546 82.938 128.504 83.176C128.462 83.358 128.532 83.554 128.658 83.708C128.952 84.044 129.428 84.072 129.75 83.806C130.086 83.526 130.128 83.05 129.848 82.714C129.652 82.49 129.302 82.42 129.05 82.448ZM134.262 87.852C134.15 88.146 133.814 88.44 133.408 88.44C132.75 88.44 132.344 88.062 132.344 86.942V82.714H133.968L134.01 82.532H132.344V80.348L131.126 80.544V82.532H130.384L130.412 82.714H131.126V86.984C131.126 88.678 131.742 89.126 132.764 89.126C133.576 89.126 134.206 88.538 134.402 87.922L134.262 87.852ZM142.793 79.886C142.891 79.648 142.835 79.312 142.695 79.116C142.555 78.934 142.051 78.584 141.407 78.584C139.811 78.584 139.153 79.48 139.153 82.532H138.243L138.257 82.714H139.153V87.81C139.153 88.482 139.139 88.72 138.607 88.832V89H141.057V88.832C140.553 88.734 140.385 88.538 140.385 87.81V82.714H141.911L141.953 82.532H140.385C140.385 79.452 140.749 78.766 141.421 78.766C141.827 78.766 142.051 78.99 141.911 79.032C141.757 79.06 141.617 79.186 141.547 79.368C141.393 79.718 141.561 80.11 141.911 80.25C142.247 80.39 142.653 80.236 142.793 79.886ZM143.868 81.244C144.26 81.244 144.582 80.922 144.582 80.53C144.582 80.124 144.26 79.816 143.868 79.816C143.462 79.816 143.154 80.124 143.154 80.53C143.154 80.922 143.462 81.244 143.868 81.244ZM145.184 88.818C144.68 88.692 144.61 88.482 144.61 87.698V82.406L142.692 82.812V82.98C143.28 83.134 143.392 83.33 143.392 83.82V87.698C143.392 88.412 143.364 88.664 142.832 88.818V89H145.184V88.818ZM148.532 88.818C148.042 88.692 147.972 88.482 147.972 87.712V78.668L146.04 79.046V79.228C146.614 79.34 146.74 79.536 146.74 80.026V87.712C146.74 88.426 146.712 88.664 146.18 88.818V89H148.532V88.818ZM151.758 88.818C151.268 88.692 151.198 88.482 151.198 87.712V78.668L149.266 79.046V79.228C149.84 79.34 149.966 79.536 149.966 80.026V87.712C149.966 88.426 149.938 88.664 149.406 88.818V89H151.758V88.818ZM153.753 81.244C154.145 81.244 154.467 80.922 154.467 80.53C154.467 80.124 154.145 79.816 153.753 79.816C153.347 79.816 153.039 80.124 153.039 80.53C153.039 80.922 153.347 81.244 153.753 81.244ZM155.069 88.818C154.565 88.692 154.495 88.482 154.495 87.698V82.406L152.577 82.812V82.98C153.165 83.134 153.277 83.33 153.277 83.82V87.698C153.277 88.412 153.249 88.664 152.717 88.818V89H155.069V88.818ZM162.323 88.832C161.833 88.706 161.749 88.468 161.749 87.698V84.646C161.749 82.952 160.951 82.406 159.817 82.406C158.935 82.406 157.969 83.064 157.675 83.876V82.406L155.743 82.812V82.98C156.331 83.134 156.443 83.316 156.443 83.806V87.712C156.443 88.426 156.429 88.664 155.897 88.818V89H158.249V88.818C157.745 88.692 157.675 88.482 157.675 87.712V84.31C157.787 83.806 158.375 83.106 159.103 83.106C160.027 83.106 160.531 83.736 160.531 84.688V87.698C160.531 88.412 160.503 88.678 159.971 88.832V89H162.323V88.832ZM167.627 84.548C167.627 86.116 166.857 86.522 166.213 86.522C165.597 86.522 164.813 86.116 164.813 84.548C164.813 82.98 165.513 82.588 166.213 82.588C166.815 82.588 167.627 82.98 167.627 84.548ZM170.007 83.414C170.273 83.19 170.315 82.798 170.105 82.518C169.951 82.336 169.685 82.266 169.461 82.28C169.125 82.322 168.565 82.518 168.201 83.064C167.739 82.658 167.053 82.406 166.213 82.406C164.603 82.406 163.595 83.414 163.595 84.548C163.595 85.29 163.959 86.06 164.701 86.382C163.399 86.76 163.455 87.936 163.455 87.936C163.455 88.44 163.679 88.818 164.085 89.014C163.161 89.532 162.545 90.568 163.063 91.52C163.637 92.584 165.835 92.794 167.753 91.716C169.223 90.89 169.265 89.798 169.265 89.798C169.517 87.964 167.823 88.02 166.857 88.02H165.177C163.525 88.02 164.225 86.578 164.883 86.466C165.247 86.62 165.667 86.704 166.213 86.704C167.851 86.704 168.845 85.682 168.845 84.548C168.845 84.044 168.677 83.526 168.327 83.176C168.579 82.812 169.013 82.756 168.985 82.868C168.943 83.022 168.999 83.19 169.111 83.33C169.321 83.61 169.727 83.638 170.007 83.414ZM164.001 91.184C164.029 91.212 162.937 89.994 164.267 89.112C164.757 89.308 165.303 89.294 165.457 89.294H167.389C168.593 89.294 168.649 90.008 168.649 90.008C168.649 90.008 168.747 90.89 167.655 91.562C166.409 92.332 164.659 91.968 164.001 91.184Z" fill="white"/>
<path d="M27.5545 52.0519H24.5548C23.7581 49.1789 21.875 47.7418 18.9042 47.7418C16.7288 47.7418 15.0451 48.4902 13.8502 49.9863C12.6564 51.4823 12.0593 53.5574 12.0593 56.2127C12.0593 58.7889 12.6659 60.8094 13.8796 62.276C15.0928 63.7426 16.7583 64.4753 18.8747 64.4753C19.8652 64.4753 20.7923 64.2733 21.6567 63.8662C22.5205 63.461 23.2632 62.86 23.8848 62.0678C24.3315 61.3746 24.637 60.7555 24.8026 60.2104C24.9675 59.6665 25.0792 58.8579 25.1375 57.7884H18.642V55.3219H27.7583V66.6451H25.894L25.2241 64.0293C24.2342 65.1797 23.2337 65.987 22.2244 66.4525C21.2145 66.9167 20.0007 67.1507 18.5837 67.1507C16.6999 67.1507 15.0251 66.7097 13.5591 65.8277C12.0925 64.947 10.9665 63.6874 10.1799 62.0527C9.39331 60.418 9 58.491 9 56.2723C9 54.0329 9.40774 52.0663 10.2232 50.372C11.0393 48.679 12.1985 47.3705 13.704 46.449C15.2082 45.5275 16.9615 45.0671 18.9619 45.0671C21.2728 45.0671 23.1653 45.6517 24.642 46.8204C26.1173 47.9902 27.0884 49.7341 27.5545 52.0519Z" fill="white"/>
<path d="M32.3017 51.1906H34.9526V53.7462C35.9237 51.7847 37.1663 50.8036 38.6806 50.8036C38.8167 50.8036 38.9234 50.8086 39.0011 50.818C39.0789 50.8293 39.1856 50.8387 39.3217 50.8488C39.4578 50.8588 39.6027 50.8732 39.7583 50.8927V53.7462C39.4672 53.7067 39.205 53.686 38.9723 53.686C37.4379 53.686 36.3841 54.1677 35.812 55.1281C35.2387 56.0885 34.9526 57.402 34.9526 59.0656V66.763H32.3017V51.1906Z" fill="white"/>
<path d="M42.0008 56.0345C42.098 54.726 42.3891 53.7067 42.8753 52.9728C43.904 51.5269 45.6516 50.803 48.1175 50.803C49.9818 50.803 51.4239 51.1706 52.4432 51.9032C53.4626 52.6359 53.9725 53.9237 53.9725 55.7661V63.1072C53.9725 63.6623 54.0359 64.0738 54.162 64.341C54.2881 64.6083 54.5264 64.7431 54.8758 64.7431C54.9731 64.7237 55.0603 64.7086 55.138 64.698C55.2158 64.6879 55.3808 64.6835 55.6336 64.6835V66.7053C54.9731 66.9236 54.4392 67.0321 54.0309 67.0321C52.5549 67.0321 51.7488 66.2492 51.6133 64.6835C50.1373 66.3289 48.3803 67.1513 46.3416 67.1513C44.8857 67.1513 43.6907 66.7247 42.7592 65.8722C41.8271 65.021 41.361 63.9107 41.361 62.5432C41.361 60.344 42.2392 58.9326 43.9968 58.3091C45.7545 57.6843 48.216 57.2239 51.3806 56.9272V56.1543C51.3806 55.1237 51.1322 54.3854 50.6373 53.9394C50.1423 53.4947 49.3018 53.272 48.1175 53.272C47.0304 53.272 46.2099 53.4903 45.6566 53.925C45.1027 54.3609 44.7973 55.0654 44.7389 56.0358H42.0008V56.0345ZM51.3505 59.0072C48.3402 59.4432 46.4959 59.839 45.8166 60.1959C44.7483 60.5723 44.2145 61.2862 44.2145 62.3362C44.2145 63.0884 44.4667 63.678 44.9716 64.1039C45.4766 64.5299 46.1559 64.7438 47.0103 64.7438C48.1953 64.7438 49.2146 64.3875 50.069 63.673C50.9227 62.9598 51.3505 62.1085 51.3505 61.1174V59.0072Z" fill="white"/>
<path d="M57.846 51.1906H60.4969V53.2707C61.2541 52.3593 61.9767 51.7194 62.6667 51.3531C63.3561 50.9868 64.196 50.803 65.1865 50.803C66.2541 50.803 67.1907 51.0552 67.9967 51.5614C68.8022 52.0663 69.3511 52.7451 69.6427 53.5975C69.8943 54.3302 70.0216 55.4204 70.0216 56.8663V66.763H67.3989V57.3129C67.3989 55.8269 67.1662 54.7819 66.7001 54.1778C66.2347 53.5724 65.4669 53.2713 64.3993 53.2713C63.5255 53.2713 62.7633 53.4896 62.1128 53.9244C61.4617 54.3603 61.0295 54.9349 60.8168 55.6481C60.6613 56.0646 60.5691 56.4209 60.5402 56.7189C60.5107 57.0156 60.4969 57.6498 60.4969 58.6202V66.7636H57.846V51.1906Z" fill="white"/>
<path d="M72.2046 51.1906H74.2432V47.4156H76.8647V51.1906H79.37V53.4777H76.8647V62.9296C76.8647 63.683 76.977 64.183 77.1996 64.4307C77.4223 64.6785 77.8652 64.8021 78.5251 64.8021H79.37V67.0321C78.5151 67.1105 77.8934 67.1507 77.5058 67.1507C76.243 67.1507 75.3836 66.8383 74.9282 66.2135C74.4709 65.59 74.2432 64.4063 74.2432 62.6631V53.4777H72.2046V51.1906Z" fill="white"/>
<path d="M87.5693 58.6848C87.5693 57.934 87.829 57.2891 88.3484 56.7515C88.8678 56.2127 89.5113 55.943 90.2817 55.943C91.0896 55.943 91.7533 56.2127 92.2727 56.7515C92.7921 57.2891 93.0517 57.934 93.0517 58.6848C93.0517 59.3773 92.782 60.0021 92.2438 60.5604C91.705 61.1181 91.0507 61.3972 90.2817 61.3972C89.5502 61.3972 88.9154 61.1181 88.3772 60.5604C87.8384 60.0021 87.5693 59.3773 87.5693 58.6848Z" fill="white"/>
<path d="M101.942 45.4836H109.566C111.414 45.4836 112.843 45.5877 113.851 45.796C114.859 46.003 115.762 46.4145 116.56 47.0286C117.799 47.9401 118.754 49.1495 119.427 50.6549C120.098 52.1604 120.435 53.9237 120.435 55.9455C120.435 57.609 120.177 59.1703 119.663 60.6269C119.148 62.0822 118.419 63.2966 117.473 64.267C116.528 65.2387 115.415 65.9024 114.134 66.2593C113.168 66.5961 111.718 66.7642 109.786 66.7642H101.942L101.942 45.4836ZM105.092 48.1584V64.0889H109.598C111.719 64.0889 113.252 63.7815 114.198 63.1674C116.193 61.7999 117.19 59.3729 117.19 55.8852C117.19 54.3014 116.948 52.9289 116.466 51.7696C115.982 50.6092 115.278 49.7435 114.355 49.1689C113.304 48.4952 111.687 48.1584 109.504 48.1584H105.092Z" fill="white"/>
<path d="M124.278 56.0345C124.383 54.726 124.698 53.7067 125.223 52.9728C126.336 51.5269 128.227 50.803 130.895 50.803C132.911 50.803 134.47 51.1706 135.573 51.9032C136.676 52.6359 137.227 53.9237 137.227 55.7661V63.1072C137.227 63.6623 137.295 64.0738 137.432 64.341C137.568 64.6083 137.825 64.7431 138.203 64.7431C138.308 64.7237 138.403 64.7086 138.487 64.698C138.571 64.6879 138.749 64.6835 139.022 64.6835V66.7053C138.308 66.9236 137.731 67.0321 137.29 67.0321C135.693 67.0321 134.821 66.2492 134.675 64.6835C133.078 66.3289 131.177 67.1513 128.972 67.1513C127.397 67.1513 126.105 66.7247 125.097 65.8722C124.089 65.021 123.585 63.9107 123.585 62.5432C123.585 60.344 124.535 58.9326 126.436 58.3091C128.337 57.6843 130.999 57.2239 134.422 56.9272V56.1543C134.422 55.1237 134.154 54.3854 133.619 53.9394C133.083 53.4947 132.174 53.272 130.894 53.272C129.717 53.272 128.83 53.4903 128.232 53.925C127.633 54.3609 127.303 55.0654 127.239 56.0358H124.278V56.0345ZM134.391 59.0072C131.135 59.4432 129.14 59.839 128.406 60.1959C127.25 60.5723 126.672 61.2862 126.672 62.3362C126.672 63.0884 126.945 63.678 127.492 64.1039C128.037 64.5305 128.772 64.7438 129.697 64.7438C130.978 64.7438 132.081 64.3875 133.005 63.673C133.929 62.9598 134.391 62.1085 134.391 61.1174V59.0072Z" fill="white"/>
<path d="M143.78 51.1906L148.158 63.5243L152.506 51.1906H155.594L148.978 68.5181C148.348 70.0224 147.728 71.1728 147.119 71.9657C146.509 72.7573 145.627 73.1544 144.472 73.1544C143.737 73.1544 142.96 73.0647 142.141 72.8872V70.3611C142.834 70.5781 143.39 70.6873 143.81 70.6873C144.504 70.6873 145.024 70.469 145.37 70.0343C145.717 69.5983 146.152 68.5972 146.677 67.0327L140.565 51.1913L143.78 51.1906Z" fill="white"/>
<path d="M157.799 61.6814H160.76C160.802 62.7509 161.123 63.5287 161.721 64.0142C162.32 64.5004 163.239 64.7431 164.478 64.7431C165.528 64.7431 166.379 64.5349 167.03 64.1184C167.68 63.7031 168.007 63.158 168.007 62.4843C168.007 62.128 167.901 61.8507 167.692 61.6525C167.482 61.4543 167.061 61.2259 166.432 60.9688L161.265 58.8887C160.214 58.4326 159.469 57.9271 159.028 57.3719C158.587 56.818 158.367 56.1343 158.367 55.3219C158.367 53.994 158.929 52.9094 160.052 52.067C161.175 51.2251 162.651 50.8036 164.479 50.8036C165.613 50.8036 166.642 50.9874 167.566 51.3537C168.49 51.7201 169.22 52.2846 169.755 53.048C170.291 53.8102 170.559 54.7166 170.559 55.7667H167.723C167.66 54.1031 166.536 53.2707 164.352 53.2707C163.427 53.2707 162.683 53.4388 162.116 53.7757C161.549 54.1125 161.265 54.5585 161.265 55.1137C161.265 55.6688 161.738 56.1242 162.683 56.4812L167.535 58.2934C168.837 58.809 169.74 59.3447 170.244 59.8986C170.748 60.4538 171 61.2071 171 62.1581C171 63.1492 170.732 64.0155 170.196 64.7588C169.661 65.5015 168.894 66.0855 167.897 66.5121C166.899 66.9386 165.739 67.1519 164.415 67.1519C162.315 67.1519 160.687 66.6752 159.533 65.7248C158.377 64.7726 157.799 63.4252 157.799 61.6814Z" fill="white"/>
<path fill-rule="evenodd" clip-rule="evenodd" d="M114.937 10.0205C114.571 8.46614 113.946 7.03028 113.047 5.71424C112.297 4.57697 110.953 3.33118 110.898 3.28351C109.009 1.59361 106.793 0.571133 104.303 0.198525C102.436 -0.0818707 100.574 0.0316678 98.7451 0.573642C96.7303 1.17019 94.9425 2.1613 93.4515 3.63918C90.3715 6.68841 92.4993 4.46971 89.4306 7.53148C88.9407 8.02077 86.6222 10.0199 85.3702 11.6308C84.2442 12.7586 84.1708 14.5383 85.4498 15.7106C87.3768 17.4808 88.9551 19.0861 90.6017 20.7227C89.8471 21.5155 91.0095 20.4272 88.0129 23.4357C87.0049 24.4481 85.9103 25.2805 84.4782 25.6079C82.1246 26.1468 80.0847 25.5653 78.3734 23.8992C76.5298 22.1046 74.7446 20.2509 72.9054 18.4506C71.6006 17.1728 70.7513 15.6918 70.5079 13.8589C70.2959 12.2662 70.5556 10.7626 71.3315 9.38134C72.6068 7.11434 74.5388 5.78826 77.1647 5.52292C78.9769 5.3385 80.5915 5.72302 82.1083 6.70535C82.8485 7.18459 83.9732 8.25286 84.0541 8.31872C85.505 7.33702 88.1377 3.89825 82.9357 1.02529C81.7169 0.414939 80.1336 0.19978 79.7516 0.142697C77.9801 -0.118881 76.2331 -0.0197697 74.5175 0.431248C72.6482 0.922412 70.9596 1.80249 69.4917 3.07525C66.6294 5.55616 65.1509 8.71454 64.9596 12.477C64.8837 13.958 65.1296 15.4064 65.5743 16.8253C66.1903 18.7956 67.2272 20.5119 68.6775 21.9747C70.7344 24.0491 72.8176 26.1004 74.8619 28.1855C76.8134 30.1752 79.113 31.421 81.9188 31.6713C84.7147 31.9197 87.2765 31.2598 89.4782 29.5247C90.667 28.5875 92.6134 26.4535 96.426 22.639C96.9492 22.1165 97.2039 21.4045 97.2001 20.7139L97.2051 20.7089C97.2051 20.6976 97.2001 20.6869 97.2014 20.6731C97.2014 20.6424 97.1976 20.6154 97.1926 20.5872C97.1757 20.2403 97.0998 19.9015 96.9524 19.5986C96.7209 19.1256 96.4123 18.7473 96.0578 18.4688V18.4663C94.0694 16.6434 92.806 15.2452 91.2403 13.6713C94.2186 10.6974 93.4784 11.351 96.6506 8.15626C97.7829 7.01586 99.0249 6.1088 100.629 5.74623C102.908 5.23186 104.969 5.66531 106.852 7.03091C106.955 7.10556 108.109 8.02955 108.795 9.22327C109.297 10.0964 109.6 11.0292 109.739 12.0329C109.908 13.2661 109.739 14.4467 109.32 15.5977C108.898 16.7651 108.146 17.7111 107.274 18.5817C103.259 22.5901 99.2626 26.6172 95.2455 30.6206C93.8228 32.037 92.4804 33.545 90.7968 34.6772C88.834 35.9977 86.6925 36.4832 84.3646 36.0629C83.6527 35.9343 82.9583 35.7041 82.2563 35.5203C82.2651 35.5423 82.2689 35.5855 82.2933 35.605C83.292 36.438 84.2624 37.3118 85.3037 38.0871C86.3563 38.8738 87.5456 39.4358 88.8347 39.7156C91.1217 40.2093 93.1679 39.5945 95.0498 38.2747C96.3169 37.3852 97.3607 36.2555 98.4459 35.1715C102.691 30.9286 106.917 26.6637 111.177 22.432C113 20.6204 114.304 18.5341 114.911 16.0249C115.394 14.0245 115.409 12.0272 114.937 10.0205Z" fill="white"/>
</svg>
